<svg xmlns="http://www.w3.org/2000/svg" width="512" height="512" viewBox="0 0 512 512">
  <!-- Background: rounded square -->
  <rect width="512" height="512" rx="80" fill="#050505"/>
  <!-- Pot still icon scaled and centered (24x24 viewBox → fit in 512 with padding) -->
  <g transform="translate(96, 56) scale(16)">
    <!-- Pot body -->
    <path d="M13 16A5 5 0 1 1 3 16C3 13.5 4.5 11.5 6 10.2V6A2 2 0 0 1 10 6V10.2C11.5 11.5 13 13.5 13 16Z" fill="#FFB000"/>
    <!-- Swan neck pipe -->
    <path d="M9 5C12.5 5 18 6.5 18 11V12" fill="none" stroke="#FFB000" stroke-width="2.5" stroke-linecap="round"/>
    <!-- Distilled drop -->
    <path d="M18 14.5L16.2 17.2C15.6 18.1 16.3 19.5 17.5 19.5H18.5C19.7 19.5 20.4 18.1 19.8 17.2L18 14.5Z" fill="#FFB000"/>
  </g>
</svg>
