<svg width="200" height="200" viewBox="0 0 200 200" fill="none" xmlns="http://www.w3.org/2000/svg">
  <defs>
    <linearGradient id="bgGrad" x1="100" y1="0" x2="100" y2="200" gradientUnits="userSpaceOnUse">
      <stop offset="0%" stop-color="#1a1a1a"/>
      <stop offset="100%" stop-color="#050505"/>
    </linearGradient>
    <linearGradient id="liquidGrad" x1="100" y1="180" x2="100" y2="80" gradientUnits="userSpaceOnUse">
      <stop offset="0%" stop-color="#C4D4E0" stop-opacity="0.3"/>
      <stop offset="100%" stop-color="#C4D4E0" stop-opacity="0.05"/>
    </linearGradient>
  </defs>
  <rect width="200" height="200" rx="40" fill="url(#bgGrad)"/>
  <path d="M68 40 H132 V52 H68 Z" stroke="#C4D4E0" stroke-width="3" stroke-linecap="round" fill="none"/>
  <path d="M72 52 V60 C72 65, 65 70, 65 80 V160 A 20 20 0 0 0 85 180 H115 A 20 20 0 0 0 135 160 V80 C135 70, 128 65, 128 60 V52" stroke="#C4D4E0" stroke-width="3" stroke-linecap="round" fill="none"/>
  <path d="M72 60 H128" stroke="#C4D4E0" stroke-width="2" stroke-opacity="0.5"/>
  <path d="M72 68 H128" stroke="#C4D4E0" stroke-width="2" stroke-opacity="0.5"/>
  <path d="M68 115 Q 100 120, 132 115 V 160 A 17 17 0 0 1 115 177 H 85 A 17 17 0 0 1 68 160 Z" fill="url(#liquidGrad)" stroke="none"/>
  <path d="M100 70 A 22 22 0 1 1 88 110 A 18 18 0 1 0 100 70 Z" fill="#E2E8F0"/>
  <path d="M130 85 V 105" stroke="#C4D4E0" stroke-width="2" stroke-opacity="0.3" stroke-linecap="round"/>
  <path d="M70 160 V 170" stroke="#C4D4E0" stroke-width="2" stroke-opacity="0.3" stroke-linecap="round"/>
</svg>
